<?xml version="1.0" encoding="UTF-8" standalone="no"?>
<!-- Created with Inkscape (http://www.inkscape.org/) -->

<svg
   xmlns:dc="http://purl.org/dc/elements/1.1/"
   xmlns:cc="http://creativecommons.org/ns#"
   xmlns:rdf="http://www.w3.org/1999/02/22-rdf-syntax-ns#"
   xmlns:svg="http://www.w3.org/2000/svg"
   xmlns="http://www.w3.org/2000/svg"
   xmlns:sodipodi="http://sodipodi.sourceforge.net/DTD/sodipodi-0.dtd"
   xmlns:inkscape="http://www.inkscape.org/namespaces/inkscape"
   width="198.4252pt"
   height="85.039368pt"
   viewBox="0 0 140 59.999999"
   version="1.1"
   id="svg8"
   inkscape:version="0.92.4 (5da689c313, 2019-01-14)"
   sodipodi:docname="cncd-outline.svg"
   inkscape:export-filename="/home/yuri/repo/cncd/logo/cncd.png"
   inkscape:export-xdpi="96"
   inkscape:export-ydpi="96">
  <defs
     id="defs2">
    <style
       id="style3155"
       type="text/css">
   
    .str0 {stroke:#141516;stroke-width:0.2}
    .str1 {stroke:#1F1A17;stroke-width:0.2}
    .str2 {stroke:#141516;stroke-width:0.3528}
    .fil0 {fill:#141516}
   
  </style>
  </defs>
  <sodipodi:namedview
     id="base"
     pagecolor="#ffffff"
     bordercolor="#666666"
     borderopacity="1.0"
     inkscape:pageopacity="0.0"
     inkscape:pageshadow="2"
     inkscape:zoom="3.022076"
     inkscape:cx="104.49921"
     inkscape:cy="114.67517"
     inkscape:document-units="mm"
     inkscape:current-layer="g933"
     showgrid="false"
     inkscape:window-width="1257"
     inkscape:window-height="1387"
     inkscape:window-x="3205"
     inkscape:window-y="10"
     inkscape:window-maximized="0"
     inkscape:pagecheckerboard="false"
     borderlayer="false"
     viewbox-width="208.1"
     scale-x="2"
     units="pt" />
  <metadata
     id="metadata5">
    <rdf:RDF>
      <cc:Work
         rdf:about="">
        <dc:format>image/svg+xml</dc:format>
        <dc:type
           rdf:resource="http://purl.org/dc/dcmitype/StillImage" />
        <dc:title></dc:title>
      </cc:Work>
    </rdf:RDF>
  </metadata>
  <g
     inkscape:label="Layer 1"
     inkscape:groupmode="layer"
     id="layer1"
     transform="translate(0,-534)">
    <g
       style="clip-rule:evenodd;fill-rule:evenodd;image-rendering:optimizeQuality;shape-rendering:geometricPrecision;text-rendering:geometricPrecision"
       id="g933"
       transform="translate(-19.155567,107.85028)">
      <path
         sodipodi:nodetypes="cccccccccccc"
         inkscape:connector-curvature="0"
         id="path3117"
         d="m 21.858567,469.38706 0.0128,-30.11943 12.38001,-11.47554 12.997211,12.12712 -7.103516,6.83049 -8.728828,-7.95232 0.0694,27.64243 1.541002,1.43466 6.933466,-6.27605 6.886716,6.18681 -13.083932,12.45431 z"
         style="fill:#000000;fill-opacity:1;stroke:#9e9e45;stroke-opacity:1;stroke-width:1;stroke-miterlimit:4;stroke-dasharray:none" />
      <path
         sodipodi:nodetypes="cccccccc"
         inkscape:connector-curvature="0"
         id="path3121"
         d="m 76.499544,484.7361 8.427378,-22.81535 -7.714257,-0.24623 10.450419,-22.26974 10.448794,0.0205 -5.129129,13.55657 8.094891,-0.0702 z"
         style="fill:#000000;fill-opacity:1;stroke:#9e9e45;stroke-opacity:1;stroke-width:1;stroke-miterlimit:4;stroke-dasharray:none" />
      <path
         sodipodi:nodetypes="cccccccccccccccc"
         inkscape:connector-curvature="0"
         id="path3123"
         d="m 134.37526,479.9873 -7.08694,-6.88676 3.77404,-3.45809 -0.08,-31.31798 -3.52909,-3.47236 6.93505,-6.79349 11.89478,-0.0217 10.16947,9.61664 -0.0679,32.87488 -10.18132,9.4662 z m 12.63301,-14.61481 -0.0695,-22.39859 -6.5749,-6.19581 0.15089,34.65506 z"
         style="fill:#000000;fill-opacity:1;stroke:#9e9e45;stroke-opacity:1;stroke-width:1;stroke-miterlimit:4;stroke-dasharray:none" />
      <path
         sodipodi:nodetypes="ccccccccccccc"
         inkscape:connector-curvature="0"
         id="path3125"
         d="m 109.00768,475.25548 -5.71294,-5.91838 v -30.58616 l 12.04694,-11.1876 13.22349,12.12767 -7.16486,6.61272 -8.71971,-7.95615 0.0464,27.9032 1.55487,1.4208 7.04812,-6.54189 6.99152,6.44078 -14.00412,12.89783 z"
         style="fill:#000000;fill-opacity:1;stroke:#9e9e45;stroke-opacity:1;stroke-width:1;stroke-miterlimit:4;stroke-dasharray:none" />
      <path
         inkscape:connector-curvature="0"
         id="path3119-1"
         d="m 74.925503,439.83269 c 0.0592,10.0203 0.11846,18.68326 0.17769,28.70357 l -10.086584,16.05644 0.57057,-23.72782 -6.595076,-7.02238 v 14.74382 c 1.138481,1.16166 2.276952,2.32332 3.415433,3.48499 l -8.164207,7.8726 c -2.797052,-2.61665 -5.594105,-5.23331 -8.391157,-7.84997 h -2e-5 c 1.184061,-1.1096 2.368132,-2.2192 3.552193,-3.32879 0.0323,-9.67311 0.0645,-19.25935 0.0968,-28.93246 l 9.490958,-11.71444 v 11.71444 l 6.595076,7.65571 c 0,0 -0.0504,-2.97724 -0.0504,-7.65571 l -3.129243,-3.06972 8.027713,-8.70251 8.201867,8.70251 z"
         style="clip-rule:evenodd;fill:#000000;fill-opacity:1;fill-rule:evenodd;stroke:#9e9e45;stroke-width:1;image-rendering:optimizeQuality;shape-rendering:geometricPrecision;text-rendering:geometricPrecision;stroke-opacity:1;stroke-miterlimit:4;stroke-dasharray:none"
         sodipodi:nodetypes="cccccccccccccccccccc" />
    </g>
  </g>
</svg>
