<?xml version="1.0" encoding="UTF-8" standalone="no"?>
<!-- Created with Inkscape (http://www.inkscape.org/) -->

<svg
   xmlns:dc="http://purl.org/dc/elements/1.1/"
   xmlns:cc="http://creativecommons.org/ns#"
   xmlns:rdf="http://www.w3.org/1999/02/22-rdf-syntax-ns#"
   xmlns:svg="http://www.w3.org/2000/svg"
   xmlns="http://www.w3.org/2000/svg"
   xmlns:sodipodi="http://sodipodi.sourceforge.net/DTD/sodipodi-0.dtd"
   xmlns:inkscape="http://www.inkscape.org/namespaces/inkscape"
   width="210mm"
   height="297mm"
   viewBox="0 0 210 297"
   version="1.1"
   id="svg8"
   inkscape:version="0.92.3 (2405546, 2018-03-11)"
   sodipodi:docname="cncd.svg"
   inkscape:export-filename="/home/yuri/repo/cncd/logo/cncd.png"
   inkscape:export-xdpi="96"
   inkscape:export-ydpi="96">
  <defs
     id="defs2">
    <style
       id="style3155"
       type="text/css">
   
    .str0 {stroke:#141516;stroke-width:0.2}
    .str1 {stroke:#1F1A17;stroke-width:0.2}
    .str2 {stroke:#141516;stroke-width:0.3528}
    .fil0 {fill:#141516}
   
  </style>
  </defs>
  <sodipodi:namedview
     id="base"
     pagecolor="#ffffff"
     bordercolor="#666666"
     borderopacity="1.0"
     inkscape:pageopacity="0.0"
     inkscape:pageshadow="2"
     inkscape:zoom="0.53423261"
     inkscape:cx="395.43678"
     inkscape:cy="1149.848"
     inkscape:document-units="mm"
     inkscape:current-layer="g933"
     showgrid="false"
     inkscape:window-width="1257"
     inkscape:window-height="1387"
     inkscape:window-x="3205"
     inkscape:window-y="10"
     inkscape:window-maximized="0" />
  <metadata
     id="metadata5">
    <rdf:RDF>
      <cc:Work
         rdf:about="">
        <dc:format>image/svg+xml</dc:format>
        <dc:type
           rdf:resource="http://purl.org/dc/dcmitype/StillImage" />
        <dc:title></dc:title>
      </cc:Work>
    </rdf:RDF>
  </metadata>
  <g
     inkscape:label="Layer 1"
     inkscape:groupmode="layer"
     id="layer1">
    <g
       style="clip-rule:evenodd;fill-rule:evenodd;image-rendering:optimizeQuality;shape-rendering:geometricPrecision;text-rendering:geometricPrecision"
       id="g933"
       transform="translate(-19.155567,107.85028)">
      <path
         sodipodi:nodetypes="cccccccccccc"
         inkscape:connector-curvature="0"
         id="path3117"
         d="m 55.63292,56.020961 0.0128,-30.11943 12.379999,-11.475533 12.9972,12.12711 -7.10351,6.830486 -8.72882,-7.952313 0.0694,27.64243 1.541,1.43466 6.93346,-6.276058 6.88671,6.186811 -13.08392,12.454317 z"
         style="fill:#000000;fill-opacity:1;stroke:none" />
      <path
         sodipodi:nodetypes="cccccccc"
         inkscape:connector-curvature="0"
         id="path3121"
         d="m 110.27385,71.369995 8.42737,-22.815352 -7.71425,-0.246231 10.45041,-22.269732 10.44878,0.02052 -5.12912,13.556565 8.09488,-0.07021 z"
         style="fill:#000000;fill-opacity:1;stroke:none" />
      <path
         sodipodi:nodetypes="cccccccccccccccc"
         inkscape:connector-curvature="0"
         id="path3123"
         d="m 168.14951,66.621193 -7.08693,-6.886753 3.77404,-3.458092 -0.08,-31.317986 -3.52909,-3.472352 6.93504,-6.793489 11.89477,-0.02166 10.16946,9.616638 -0.0679,32.874882 -10.18131,9.466199 z m 12.633,-14.614811 -0.0695,-22.398589 -6.57489,-6.195811 0.15089,34.655063 z"
         style="fill:#000000;fill-opacity:1;stroke:none" />
      <path
         sodipodi:nodetypes="ccccccccccccc"
         inkscape:connector-curvature="0"
         id="path3125"
         d="m 142.78195,61.889372 -5.71293,-5.91838 V 25.384836 l 12.04693,-11.187593 13.22348,12.127659 -7.16486,6.612729 -8.7197,-7.956152 0.0464,27.903198 1.55487,1.420803 7.04811,-6.541897 6.99152,6.440782 -14.00411,12.897832 z"
         style="fill:#000000;fill-opacity:1;stroke:none" />
      <path
         inkscape:connector-curvature="0"
         id="path3119-1"
         d="m 108.69981,26.466587 c 0.0592,10.0203 0.11846,18.683263 0.17769,28.703573 L 98.790925,71.2266 99.361494,47.49878 92.766424,40.476393 v 14.743822 c 1.13848,1.16166 2.27695,2.32332 3.41543,3.48499 l -8.1642,7.8726 c -2.79705,-2.61665 -5.5941,-5.23331 -8.39115,-7.84997 h -2e-5 c 1.18406,-1.1096 2.36813,-2.2192 3.55219,-3.32879 0.0323,-9.67311 0.0645,-19.259348 0.0968,-28.932458 l 9.49095,-11.714438 v 11.714438 l 6.59507,7.655705 c 0,0 -0.0504,-2.977235 -0.0504,-7.655705 l -3.12924,-3.069722 8.027706,-8.702501 8.20186,8.702501 z"
         style="clip-rule:evenodd;fill:#000000;fill-opacity:1;fill-rule:evenodd;stroke:none;stroke-width:1;image-rendering:optimizeQuality;shape-rendering:geometricPrecision;text-rendering:geometricPrecision"
         sodipodi:nodetypes="cccccccccccccccccccc" />
    </g>
  </g>
</svg>
